<?xml version="1.0" encoding="UTF-8" standalone="no"?>
<!DOCTYPE svg PUBLIC "-//W3C//DTD SVG 1.1//EN"
 "http://www.w3.org/Graphics/SVG/1.1/DTD/svg11.dtd">
<!-- Generated by graphviz version 2.50.0 (20211209.1537)
 -->
<!-- Title: g Pages: 1 -->
<svg width="187pt" height="260pt"
 viewBox="0.00 0.00 186.56 260.00" xmlns="http://www.w3.org/2000/svg" xmlns:xlink="http://www.w3.org/1999/xlink">
<g id="graph0" class="graph" transform="scale(1 1) rotate(0) translate(4 256)">
<title>g</title>
<g id="node1" class="node">
<title></title>
<g id="a_node1"><a xlink:href=".">
<ellipse fill="white" stroke="#666666" cx="5.5" cy="-126" rx="5.5" ry="5.5"/>
</a>
</g>
</g>
<!-- a -->
<g id="node2" class="node">
<title>a</title>
<g id="a_node2"><a xlink:href="a" xlink:title="1\l">
<polygon fill="white" stroke="#b3b3b3" points="178.56,-252 124.56,-252 124.56,-216 178.56,-216 178.56,-252"/>
<text text-anchor="start" x="148.78" y="-231" font-family="Helvetica,sans-Serif" font-size="10.00">1</text>
</a>
</g>
</g>
<!-- &#45;&gt;a -->
<g id="edge1" class="edge">
<title>&#45;&gt;a</title>
<path fill="none" stroke="#999999" d="M10.35,-128.89C25.75,-140.43 83.78,-183.93 120.18,-211.23"/>
<polygon fill="#999999" stroke="#999999" points="126.27,-215.79 118.25,-213.99 123.27,-213.54 120.27,-211.29 120.27,-211.29 120.27,-211.29 123.27,-213.54 122.29,-208.59 126.27,-215.79 126.27,-215.79"/>
<text text-anchor="middle" x="67.78" y="-176" font-family="Helvetica,sans-Serif" font-size="10.00">a</text>
</g>
<!-- b -->
<g id="node3" class="node">
<title>b</title>
<g id="a_node3"><a xlink:href="b" xlink:title="2\l">
<polygon fill="white" stroke="#b3b3b3" points="178.56,-144 124.56,-144 124.56,-108 178.56,-108 178.56,-144"/>
<text text-anchor="start" x="148.78" y="-123" font-family="Helvetica,sans-Serif" font-size="10.00">2</text>
</a>
</g>
</g>
<!-- &#45;&gt;b -->
<g id="edge2" class="edge">
<title>&#45;&gt;b</title>
<path fill="none" stroke="#999999" d="M11.29,-126C27.45,-126 80.91,-126 116.7,-126"/>
<polygon fill="#999999" stroke="#999999" points="124.49,-126 116.99,-129.38 120.74,-126 116.99,-126 116.99,-126 116.99,-126 120.74,-126 116.99,-122.63 124.49,-126 124.49,-126"/>
<text text-anchor="middle" x="67.78" y="-129" font-family="Helvetica,sans-Serif" font-size="10.00">b</text>
</g>
<!-- c -->
<g id="node4" class="node">
<title>c</title>
<g id="a_node4"><a xlink:href="c" xlink:title="3\l">
<polygon fill="white" stroke="#b3b3b3" points="178.56,-36 124.56,-36 124.56,0 178.56,0 178.56,-36"/>
<text text-anchor="start" x="148.78" y="-15" font-family="Helvetica,sans-Serif" font-size="10.00">3</text>
</a>
</g>
</g>
<!-- &#45;&gt;c -->
<g id="edge3" class="edge">
<title>&#45;&gt;c</title>
<path fill="none" stroke="#999999" d="M10.35,-123.11C25.75,-111.57 83.78,-68.07 120.18,-40.77"/>
<polygon fill="#999999" stroke="#999999" points="126.27,-36.21 122.29,-43.41 123.27,-38.46 120.27,-40.71 120.27,-40.71 120.27,-40.71 123.27,-38.46 118.25,-38.01 126.27,-36.21 126.27,-36.21"/>
<text text-anchor="middle" x="67.78" y="-84" font-family="Helvetica,sans-Serif" font-size="10.00">c</text>
</g>
</g>
</svg>
